<svg width="104" height="12" fill="none" xmlns="http://www.w3.org/2000/svg"><path d="M6.147 1.547c.328-.422.562-.985.492-1.547-.492.023-1.078.328-1.43.727-.304.351-.586.937-.515 1.476.562.07 1.101-.234 1.453-.656zm.492.797c-.797-.047-1.477.445-1.852.445s-.96-.422-1.593-.422c-.82.024-1.57.469-1.993 1.219-.843 1.476-.234 3.656.61 4.851.398.586.89 1.243 1.523 1.22.61-.024.844-.4 1.57-.4.727 0 .938.4 1.594.376.657-.024 1.078-.586 1.477-1.196.469-.68.656-1.336.656-1.359-.023-.023-1.289-.492-1.289-1.945-.023-1.219.984-1.805 1.031-1.828-.539-.844-1.43-.938-1.734-.961zM13.531.68c1.735 0 2.93 1.195 2.93 2.906 0 1.734-1.219 2.93-2.976 2.93h-1.899v3.023h-1.383V.68h3.329zm-.375 4.687c1.196 0 1.875-.656 1.875-1.757 0-1.125-.68-1.758-1.875-1.758h-1.593v3.515h1.593zm3.657 2.367c0-1.125.867-1.828 2.414-1.921l1.781-.094v-.492c0-.727-.492-1.149-1.29-1.149-.773 0-1.241.375-1.358.938h-1.266c.07-1.172 1.078-2.04 2.672-2.04 1.57 0 2.578.821 2.578 2.133v4.454h-1.266V8.508h-.023c-.375.726-1.195 1.172-2.04 1.172-1.312 0-2.202-.797-2.202-1.946zm4.195-.585v-.516l-1.594.094c-.797.047-1.242.398-1.242.96 0 .563.469.938 1.172.938.937 0 1.664-.633 1.664-1.476zm2.508 4.804v-1.078c.094.024.328.024.422.024.609 0 .937-.258 1.148-.915 0-.023.117-.398.117-.398L22.86 3.117h1.43l1.64 5.274h.023l1.64-5.274H29l-2.414 6.82C26.023 11.508 25.391 12 24.055 12c-.094-.023-.422-.023-.54-.047zM65.361.8h-3.27a.454.454 0 00-.448.383L60.32 9.567a.272.272 0 00.27.314h1.676c.157 0 .29-.114.314-.269l.376-2.377a.454.454 0 01.448-.383h1.034c2.154 0 3.396-1.041 3.721-3.107.146-.904.006-1.613-.417-2.11C67.279 1.09 66.456.8 65.36.8zm.378 3.062c-.18 1.174-1.075 1.174-1.942 1.174h-.494l.346-2.192a.272.272 0 01.27-.229h.225c.591 0 1.149 0 1.436.336.171.2.225.5.16.91zM42.043.8h-3.27a.454.454 0 00-.448.383l-1.322 8.384a.272.272 0 00.269.314h1.561a.454.454 0 00.448-.383l.357-2.261a.454.454 0 01.448-.383h1.035c2.153 0 3.396-1.042 3.72-3.108.147-.903.007-1.612-.417-2.11C43.961 1.09 43.136.8 42.043.8zm.376 3.062c-.179 1.174-1.075 1.174-1.942 1.174h-.494l.346-2.192a.273.273 0 01.27-.229h.226c.59 0 1.148 0 1.435.336.173.2.225.5.16.91zM51.815 3.824h-1.566a.271.271 0 00-.269.23l-.068.437-.11-.158c-.338-.492-1.095-.656-1.85-.656-1.73 0-3.207 1.31-3.494 3.148-.15.918.062 1.794.583 2.406.478.562 1.159.796 1.971.796 1.395 0 2.168-.896 2.168-.896l-.07.436a.273.273 0 00.269.316h1.41a.454.454 0 00.447-.383l.846-5.36a.271.271 0 00-.267-.316zm-2.183 3.048c-.152.895-.86 1.495-1.766 1.495-.454 0-.817-.146-1.051-.422-.231-.275-.32-.666-.246-1.1a1.752 1.752 0 011.754-1.507c.445 0 .805.148 1.044.427.24.281.335.675.265 1.107zM75.134 3.824h-1.566a.271.271 0 00-.269.23l-.068.437-.11-.158c-.338-.492-1.094-.656-1.85-.656-1.73 0-3.207 1.31-3.494 3.148-.15.918.062 1.794.583 2.406.479.562 1.16.796 1.972.796 1.394 0 2.167-.896 2.167-.896l-.07.436a.273.273 0 00.27.316h1.409a.454.454 0 00.448-.383l.846-5.36a.271.271 0 00-.268-.316zm-2.182 3.048c-.152.895-.861 1.495-1.767 1.495-.454 0-.817-.146-1.05-.422-.232-.275-.32-.666-.247-1.1a1.752 1.752 0 011.754-1.507c.446 0 .805.148 1.044.427.24.281.334.675.266 1.107zM60.153 3.824H58.58a.452.452 0 00-.376.199l-2.17 3.197-.92-3.072a.453.453 0 00-.436-.324h-1.546a.272.272 0 00-.259.36l1.733 5.086-1.63 2.3c-.127.18.002.43.222.43h1.572a.454.454 0 00.374-.196l5.234-7.553a.272.272 0 00-.225-.427zM76.98 1.03l-1.343 8.538a.272.272 0 00.27.314h1.35a.454.454 0 00.448-.383l1.322-8.384a.272.272 0 00-.268-.314h-1.51a.267.267 0 00-.269.23z" fill="#333"/><path fill-rule="evenodd" clip-rule="evenodd" d="M89.154 1.6c-.194 0-.35.178-.35.398v.692h14.399v-.692c0-.22-.157-.398-.35-.398h-13.7zm-.35 3.165v5.238c0 .22.156.398.35.398h13.699c.193 0 .35-.177.35-.398V4.765h-14.4zm10.559 2.312c.271 0 .522.052.746.204-.379.256-.592.714-.592 1.172 0 .459.175.918.554 1.173a1.171 1.171 0 01-.708.204 1.372 1.372 0 01-1.368-1.377 1.372 1.372 0 011.368-1.376zm1.701 0c.756 0 1.368.616 1.368 1.376 0 .76-.612 1.377-1.368 1.377a1.372 1.372 0 01-1.367-1.377c0-.758.612-1.376 1.367-1.376zm-11.32 1.959h3.894c.095 0 .172.057.172.129v.35c0 .073-.076.13-.172.13h-3.893c-.095 0-.17-.057-.17-.13v-.35c0-.072.075-.13.17-.13z" fill="#333"/></svg>